<svg width="40" height="40" viewBox="0 0 40 40" fill="none" xmlns="http://www.w3.org/2000/svg">
<mask id="mask0_156_476" style="mask-type:alpha" maskUnits="userSpaceOnUse" x="0" y="0" width="40" height="40">
<rect width="40" height="40" fill="#D9D9D9"/>
</mask>
<g mask="url(#mask0_156_476)">
<path d="M18.3335 35V31.6667H31.6668V19.8333C31.6668 16.5833 30.5349 13.8264 28.271 11.5625C26.0071 9.29861 23.2502 8.16667 20.0002 8.16667C16.7502 8.16667 13.9932 9.29861 11.7293 11.5625C9.46544 13.8264 8.3335 16.5833 8.3335 19.8333V30H6.66683C5.75016 30 4.96544 29.6736 4.31266 29.0208C3.65989 28.3681 3.3335 27.5833 3.3335 26.6667V23.3333C3.3335 22.75 3.47933 22.2014 3.771 21.6875C4.06266 21.1736 4.47238 20.7639 5.00016 20.4583L5.12516 18.25C5.34738 16.3611 5.896 14.6111 6.771 13C7.646 11.3889 8.74322 9.98611 10.0627 8.79167C11.3821 7.59722 12.896 6.66667 14.6043 6C16.3127 5.33333 18.1113 5 20.0002 5C21.8891 5 23.6807 5.33333 25.3752 6C27.0696 6.66667 28.5835 7.59028 29.9168 8.77083C31.2502 9.95139 32.3474 11.3472 33.2085 12.9583C34.0696 14.5694 34.6252 16.3194 34.8752 18.2083L35.0002 20.375C35.5279 20.625 35.9377 21 36.2293 21.5C36.521 22 36.6668 22.5278 36.6668 23.0833V26.9167C36.6668 27.4722 36.521 28 36.2293 28.5C35.9377 29 35.5279 29.375 35.0002 29.625V31.6667C35.0002 32.5833 34.6738 33.3681 34.021 34.0208C33.3682 34.6736 32.5835 35 31.6668 35H18.3335ZM15.0002 23.3333C14.5279 23.3333 14.1321 23.1736 13.8127 22.8542C13.4932 22.5347 13.3335 22.1389 13.3335 21.6667C13.3335 21.1944 13.4932 20.7986 13.8127 20.4792C14.1321 20.1597 14.5279 20 15.0002 20C15.4724 20 15.8682 20.1597 16.1877 20.4792C16.5071 20.7986 16.6668 21.1944 16.6668 21.6667C16.6668 22.1389 16.5071 22.5347 16.1877 22.8542C15.8682 23.1736 15.4724 23.3333 15.0002 23.3333ZM25.0002 23.3333C24.5279 23.3333 24.1321 23.1736 23.8127 22.8542C23.4932 22.5347 23.3335 22.1389 23.3335 21.6667C23.3335 21.1944 23.4932 20.7986 23.8127 20.4792C24.1321 20.1597 24.5279 20 25.0002 20C25.4724 20 25.8682 20.1597 26.1877 20.4792C26.5071 20.7986 26.6668 21.1944 26.6668 21.6667C26.6668 22.1389 26.5071 22.5347 26.1877 22.8542C25.8682 23.1736 25.4724 23.3333 25.0002 23.3333ZM10.0418 20.75C9.84738 17.8056 10.7363 15.2778 12.7085 13.1667C14.6807 11.0556 17.1391 10 20.0835 10C22.5557 10 24.7293 10.7847 26.6043 12.3542C28.4793 13.9236 29.6113 15.9306 30.0002 18.375C27.4724 18.3472 25.146 17.6667 23.021 16.3333C20.896 15 19.2641 13.1944 18.1252 10.9167C17.6807 13.1389 16.7432 15.1181 15.3127 16.8542C13.8821 18.5903 12.1252 19.8889 10.0418 20.75Z" fill="#474550"/>
</g>
</svg>
