<svg width="40" height="40" viewBox="0 0 40 40" fill="none" xmlns="http://www.w3.org/2000/svg">
<mask id="mask0_156_481" style="mask-type:alpha" maskUnits="userSpaceOnUse" x="0" y="0" width="40" height="40">
<rect width="40" height="40" fill="#D9D9D9"/>
</mask>
<g mask="url(#mask0_156_481)">
<path d="M24.9998 33.3334C21.2776 33.3334 18.1248 32.0417 15.5415 29.4584C12.9582 26.875 11.6665 23.7222 11.6665 20C11.6665 16.3056 12.9582 13.1597 15.5415 10.5625C18.1248 7.9653 21.2776 6.66669 24.9998 6.66669C28.6943 6.66669 31.8401 7.9653 34.4373 10.5625C37.0346 13.1597 38.3332 16.3056 38.3332 20C38.3332 23.7222 37.0346 26.875 34.4373 29.4584C31.8401 32.0417 28.6943 33.3334 24.9998 33.3334ZM24.9998 30C27.7776 30 30.1387 29.0278 32.0832 27.0834C34.0276 25.1389 34.9998 22.7778 34.9998 20C34.9998 17.2222 34.0276 14.8611 32.0832 12.9167C30.1387 10.9722 27.7776 10 24.9998 10C22.2221 10 19.8609 10.9722 17.9165 12.9167C15.9721 14.8611 14.9998 17.2222 14.9998 20C14.9998 22.7778 15.9721 25.1389 17.9165 27.0834C19.8609 29.0278 22.2221 30 24.9998 30ZM28.7915 26.2084L31.1665 23.8334L26.6665 19.3334V13.3334H23.3332V20.7084L28.7915 26.2084ZM3.33317 15V11.6667H9.99984V15H3.33317ZM1.6665 21.6667V18.3334H9.99984V21.6667H1.6665ZM3.33317 28.3334V25H9.99984V28.3334H3.33317Z" fill="#474550"/>
</g>
</svg>
