<svg width="40" height="40" viewBox="0 0 40 40" fill="none" xmlns="http://www.w3.org/2000/svg">
<mask id="mask0_156_486" style="mask-type:alpha" maskUnits="userSpaceOnUse" x="0" y="0" width="40" height="40">
<rect width="40" height="40" fill="#D9D9D9"/>
</mask>
<g mask="url(#mask0_156_486)">
<path d="M28.5833 34.5L18.5 24.3333C17.9444 24.5556 17.3819 24.7222 16.8125 24.8333C16.2431 24.9444 15.6389 25 15 25C12.2222 25 9.86111 24.0278 7.91667 22.0833C5.97222 20.1389 5 17.7778 5 15C5 14 5.13889 13.0486 5.41667 12.1458C5.69444 11.2431 6.08333 10.3889 6.58333 9.58333L12.6667 15.6667L15.6667 12.6667L9.58333 6.58333C10.3889 6.08333 11.2431 5.69444 12.1458 5.41667C13.0486 5.13889 14 5 15 5C17.7778 5 20.1389 5.97222 22.0833 7.91667C24.0278 9.86111 25 12.2222 25 15C25 15.6389 24.9444 16.2431 24.8333 16.8125C24.7222 17.3819 24.5556 17.9444 24.3333 18.5L34.5 28.5833C34.8333 28.9167 35 29.3194 35 29.7917C35 30.2639 34.8333 30.6667 34.5 31L31 34.5C30.6667 34.8333 30.2639 35 29.7917 35C29.3194 35 28.9167 34.8333 28.5833 34.5ZM29.7917 30.9583L30.9167 29.8333L20.25 19.1667C20.75 18.6111 21.1111 17.9653 21.3333 17.2292C21.5556 16.4931 21.6667 15.75 21.6667 15C21.6667 13.3333 21.1319 11.8819 20.0625 10.6458C18.9931 9.40972 17.6667 8.66667 16.0833 8.41667L19.1667 11.5C19.5 11.8333 19.6667 12.2222 19.6667 12.6667C19.6667 13.1111 19.5 13.5 19.1667 13.8333L13.8333 19.1667C13.5 19.5 13.1111 19.6667 12.6667 19.6667C12.2222 19.6667 11.8333 19.5 11.5 19.1667L8.41667 16.0833C8.66667 17.6667 9.40972 18.9931 10.6458 20.0625C11.8819 21.1319 13.3333 21.6667 15 21.6667C15.7222 21.6667 16.4444 21.5556 17.1667 21.3333C17.8889 21.1111 18.5417 20.7639 19.125 20.2917L29.7917 30.9583Z" fill="#474550"/>
</g>
</svg>
