<svg width="490" height="295" viewBox="0 0 490 295" fill="none" xmlns="http://www.w3.org/2000/svg">
<path fill-rule="evenodd" clip-rule="evenodd" d="M153.115 0C180.774 16.3134 186.774 38.7112 171.113 67.1936C164.142 76.3775 156.942 76.3775 149.515 67.1936C144.646 59.8685 141.846 51.8694 141.116 43.1959C146.51 29.2002 150.511 14.8015 153.115 0Z" fill="#92C94D"/>
<path fill-rule="evenodd" clip-rule="evenodd" d="M78.7188 23.9992C106.894 22.9654 124.492 36.1641 131.514 63.5954C122.029 65.7828 113.23 64.1829 105.116 58.7959C96.5867 46.7099 87.7875 35.1109 78.7188 23.9992Z" fill="#92C94E"/>
<path fill-rule="evenodd" clip-rule="evenodd" d="M208.306 64.7939C224.332 65.487 240.328 66.6869 256.301 68.3936C239.46 99.4925 216.264 106.292 186.708 88.7917C190.61 77.6956 197.809 69.6964 208.306 64.7939Z" fill="#91C94C"/>
<path fill-rule="evenodd" clip-rule="evenodd" d="M90.7182 76.7919C124.518 73.2652 154.914 81.6644 181.91 101.99C190.45 107.461 194.05 115.061 192.708 124.787C190.969 126.128 188.97 126.927 186.709 127.187C171.72 117.695 155.721 110.095 138.714 104.389C93.3253 100.083 61.7283 118.882 43.9227 160.784C33.0755 210.687 51.0738 245.484 97.9175 265.174C125.998 272.8 151.996 268.402 175.91 251.975C185.428 257.171 186.627 263.969 179.51 272.373C136.52 300.847 92.5248 302.447 47.5223 277.173C11.9227 249.626 -3.6758 213.229 0.726824 167.983C12.0521 118.776 42.0492 88.379 90.7182 76.7919Z" fill="#126834"/>
<path fill-rule="evenodd" clip-rule="evenodd" d="M289.897 100.791C302.65 98.9664 311.848 103.766 317.495 115.19C319.095 155.986 319.095 196.782 317.495 237.578C309.201 249.85 298.402 252.651 285.098 245.977C282.794 242.572 280.795 238.972 279.098 235.178C277.498 195.181 277.498 155.186 279.098 115.19C282.295 110.006 285.895 105.207 289.897 100.791Z" fill="#206D3B"/>
<path fill-rule="evenodd" clip-rule="evenodd" d="M342.694 100.79C361.984 99.7355 371.185 108.534 370.292 127.187C360.906 142.532 348.907 144.931 334.295 134.386C327.737 120.521 330.537 109.322 342.694 100.79Z" fill="#1A6B37"/>
<path fill-rule="evenodd" clip-rule="evenodd" d="M83.5195 131.987C86.6176 132.557 89.0174 131.757 90.7188 129.587C92.492 129.273 94.0919 129.673 95.5184 130.787C91.1285 133.459 89.1287 137.058 89.5189 141.586C94.7168 137.695 100.716 135.696 107.517 135.587C111.159 131.543 115.158 127.943 119.516 124.788C117.081 121.952 114.282 119.553 111.117 117.588C107.173 119.543 103.573 121.943 100.318 124.788C100.454 122.126 101.254 119.727 102.718 117.588C117.385 110.815 131.783 111.215 145.914 118.788C145.114 119.588 144.313 120.388 143.514 121.188C146.362 123.635 148.762 126.434 150.713 129.587C148.239 132.468 146.237 135.668 144.714 139.186C135.538 135.312 128.339 137.712 123.116 146.386C122.218 148.584 121.018 150.584 119.516 152.385C123.262 153.147 126.062 155.147 127.915 158.385C135.828 148.943 137.028 149.343 131.515 159.584C126.082 157.909 121.683 159.109 118.316 163.184C116.1 160.163 114.1 156.964 112.317 153.585C107.576 155.445 105.577 158.645 106.317 163.184C107.117 162.384 107.917 161.584 108.717 160.784C109.615 162.983 110.815 164.983 112.317 166.784C107.064 168.408 106.264 171.209 109.917 175.183C107.778 177.799 105.378 177.799 102.718 175.183C99.4705 180.887 98.2706 186.486 99.118 191.981C80.9551 203.93 78.9551 217.928 93.1186 233.977C102.466 237.015 112.065 238.215 121.916 237.577C124.482 244.2 126.882 250.999 129.115 257.975C79.6842 258.15 53.2867 233.351 49.9227 183.582C48.2556 168.478 53.4549 156.879 65.5212 148.785C66.3211 149.585 67.1211 150.385 67.921 151.185C68.519 148.488 69.7189 146.088 71.5206 143.986C72.506 145.815 72.906 148.215 72.7205 151.185C76.9859 145.043 80.5855 138.644 83.5195 131.987Z" fill="#93C94F"/>
<path fill-rule="evenodd" clip-rule="evenodd" d="M90.7176 129.587C89.6661 129.744 88.866 129.344 88.3179 128.387C94.7173 126.787 94.7173 125.188 88.3179 123.588C94.3348 117.625 97.9345 118.825 99.1168 127.187C100.074 126.639 100.474 125.839 100.317 124.788C103.572 121.943 107.172 119.543 111.116 117.588C114.281 119.553 117.08 121.952 119.515 124.788C115.157 127.943 111.158 131.543 107.516 135.587C100.715 135.696 94.7157 137.695 89.5178 141.586C89.1276 137.058 91.1273 133.459 95.5172 130.787C94.0908 129.673 92.4908 129.273 90.7176 129.587Z" fill="#F6FAF2"/>
<path fill-rule="evenodd" clip-rule="evenodd" d="M102.714 117.589C101.251 119.727 100.451 122.127 100.314 124.789C100.471 125.84 100.071 126.64 99.1145 127.188C97.9321 118.826 94.3324 117.626 88.3155 123.589C94.715 125.189 94.715 126.788 88.3155 128.388C88.8636 129.345 89.6637 129.745 90.7153 129.588C89.0138 131.757 86.6141 132.557 83.516 131.988C74.4218 133.169 72.8219 131.17 78.7164 125.988C85.2464 121.124 92.4457 117.524 100.314 115.189C101.77 115.486 102.57 116.286 102.714 117.589Z" fill="#D1E7B7"/>
<path fill-rule="evenodd" clip-rule="evenodd" d="M393.086 139.187C403.78 137.681 412.577 140.88 419.484 148.786C440.501 135.493 460.899 136.293 480.678 151.186C483.078 155.986 485.478 160.785 487.877 165.585C489.478 188.783 489.478 211.98 487.877 235.178C481.78 246.143 472.579 249.742 460.28 245.977C456.68 243.978 453.88 241.178 451.881 237.578C451.082 219.179 450.28 200.782 449.481 182.383C447.662 176.6 443.662 174.2 437.482 175.184C431.082 174.385 426.282 176.785 423.084 182.383C422.932 201.829 421.332 221.027 418.284 239.978C408.503 248.459 398.104 249.258 387.087 242.378C383.18 211.408 382.381 180.211 384.687 148.786C386.343 144.346 389.141 141.147 393.086 139.187Z" fill="#166935"/>
<path fill-rule="evenodd" clip-rule="evenodd" d="M100.32 143.985C104.728 144.32 105.528 145.919 102.72 148.784C100.806 147.688 100.006 146.088 100.32 143.985Z" fill="#F0F7E8"/>
<path fill-rule="evenodd" clip-rule="evenodd" d="M203.507 141.586C236.825 138.555 258.025 152.953 267.101 184.782C268.303 228.376 247.106 249.574 203.507 248.376C171.674 237.935 157.676 215.938 161.511 182.382C169.034 161.654 183.032 148.055 203.507 141.586Z" fill="#116834"/>
<path fill-rule="evenodd" clip-rule="evenodd" d="M340.294 146.385C351.498 144.464 360.699 147.664 367.891 155.984C369.492 183.982 369.492 211.978 367.891 239.976C354.527 253.592 342.528 252.791 331.894 237.576C330.294 210.38 330.294 183.181 331.894 155.984C335.196 153.092 337.995 149.893 340.294 146.385Z" fill="#0F6733"/>
<path fill-rule="evenodd" clip-rule="evenodd" d="M205.907 172.783C228.674 171.148 238.674 181.549 235.904 203.98C226.564 219.475 214.167 222.276 198.708 212.379C187.556 196.478 189.956 183.279 205.907 172.783Z" fill="#F6F8F6"/>
<path fill-rule="evenodd" clip-rule="evenodd" d="M121.916 177.583C128.856 184.416 136.056 189.616 143.514 193.182C141.499 195.992 139.499 198.793 137.515 201.581C131.107 199.844 127.508 195.843 126.716 189.582C106.05 191.973 104.45 187.975 121.916 177.583Z" fill="#92C94E"/>
</svg>
