<svg width="798" height="1101" viewBox="0 0 798 1101" fill="none" xmlns="http://www.w3.org/2000/svg">
<g opacity="0.6">
<path d="M150.576 359.704C208.631 580.627 761.837 1064.22 1043.96 1286C442.102 940.402 7.16357 538.38 0.110553 286.823C-5.53186 85.5766 206.216 11.755 312.795 0C174.086 47.0201 92.5207 138.781 150.576 359.704Z" fill="white"/>
<path d="M110.612 1104.97L390.382 825.205L500.879 912.192L308.097 1104.97H110.612Z" fill="white"/>
<path d="M879.383 517.22L578.454 818.148L485.575 722.947L691.303 517.22H879.383Z" fill="#7F7F7F"/>
<path d="M331.604 61.1253C83.3375 175.854 264.208 464.715 385.677 594.804C228.161 329.14 296.337 216.292 423.292 143.411C712.936 2.35026 1752.39 293.091 2235.92 456.094C1177.96 54.0723 641.936 -82.286 331.604 61.1253Z" fill="#7F7F7F"/>
</g>
</svg>
