<svg width="483" height="402" viewBox="0 0 483 402" fill="none" xmlns="http://www.w3.org/2000/svg">
<g opacity="0.2">
<path d="M55.0874 131.596C76.3266 212.42 278.715 389.341 381.927 470.477C161.741 344.042 2.62076 196.964 0.0404453 104.933C-2.02381 31.3078 75.4431 4.30052 114.435 0C63.6885 17.2021 33.8483 50.7724 55.0874 131.596Z" fill="white"/>
<path d="M40.467 404.25L142.819 301.897L183.244 333.721L112.716 404.25H40.467Z" fill="white"/>
<path d="M321.718 189.222L211.625 299.316L177.646 264.487L252.91 189.222H321.718Z" fill="#7F7F7F"/>
<path d="M121.316 22.3626C30.4891 64.3357 96.6598 170.014 141.099 217.606C83.472 120.415 108.414 79.1295 154.86 52.4663C260.825 0.860044 641.106 107.226 818 166.86C430.953 19.7823 234.85 -30.1037 121.316 22.3626Z" fill="#7F7F7F"/>
</g>
</svg>
